<svg xmlns="http://www.w3.org/2000/svg" width="1200" height="630" viewBox="0 0 1200 630">
  <defs>
    <linearGradient id="bg" x1="0%" y1="0%" x2="100%" y2="100%">
      <stop offset="0%" stop-color="#faf8f5"/>
      <stop offset="100%" stop-color="#f5f0eb"/>
    </linearGradient>
    <linearGradient id="gold" x1="0%" y1="0%" x2="100%" y2="0%">
      <stop offset="0%" stop-color="#ddb892"/>
      <stop offset="50%" stop-color="#b08968"/>
      <stop offset="100%" stop-color="#ddb892"/>
    </linearGradient>
  </defs>

  <!-- Background -->
  <rect width="1200" height="630" fill="url(#bg)"/>

  <!-- Decorative border -->
  <rect x="40" y="40" width="1120" height="550" rx="8" fill="none" stroke="url(#gold)" stroke-width="1.5" opacity="0.5"/>
  <rect x="52" y="52" width="1096" height="526" rx="4" fill="none" stroke="url(#gold)" stroke-width="0.75" opacity="0.3"/>

  <!-- Top flourish -->
  <g transform="translate(600, 140)" opacity="0.6">
    <line x1="-120" y1="0" x2="-30" y2="0" stroke="#b08968" stroke-width="1"/>
    <circle cx="-20" cy="0" r="3" fill="#b08968"/>
    <circle cx="0" cy="0" r="4" fill="#b08968"/>
    <circle cx="20" cy="0" r="3" fill="#b08968"/>
    <line x1="30" y1="0" x2="120" y2="0" stroke="#b08968" stroke-width="1"/>
  </g>

  <!-- Monogram -->
  <text x="600" y="220" text-anchor="middle" font-family="Georgia, serif" font-size="28" fill="#b08968" letter-spacing="8" opacity="0.7">A &amp; K</text>

  <!-- Couple names -->
  <text x="600" y="310" text-anchor="middle" font-family="Georgia, 'Playfair Display', serif" font-size="72" fill="#1c1917" font-weight="400" letter-spacing="2">Anjana &amp; Krishnaprasad</text>

  <!-- Tagline -->
  <text x="600" y="390" text-anchor="middle" font-family="'Outfit', system-ui, sans-serif" font-size="24" fill="#57534e" letter-spacing="6" font-weight="300">YOU'RE INVITED</text>

  <!-- Bottom flourish -->
  <g transform="translate(600, 450)" opacity="0.6">
    <line x1="-80" y1="0" x2="-15" y2="0" stroke="#b08968" stroke-width="1"/>
    <path d="M-10,-5 Q0,-12 10,-5 Q0,2 -10,-5Z" fill="#b08968" opacity="0.6"/>
    <line x1="15" y1="0" x2="80" y2="0" stroke="#b08968" stroke-width="1"/>
  </g>

  <!-- Corner ornaments -->
  <g opacity="0.35" stroke="#b08968" fill="none" stroke-width="1">
    <!-- Top-left -->
    <path d="M70,80 Q70,70 80,70"/>
    <path d="M70,95 Q70,70 95,70"/>
    <!-- Top-right -->
    <path d="M1130,80 Q1130,70 1120,70"/>
    <path d="M1130,95 Q1130,70 1105,70"/>
    <!-- Bottom-left -->
    <path d="M70,550 Q70,560 80,560"/>
    <path d="M70,535 Q70,560 95,560"/>
    <!-- Bottom-right -->
    <path d="M1130,550 Q1130,560 1120,560"/>
    <path d="M1130,535 Q1130,560 1105,560"/>
  </g>
</svg>
